<svg xmlns="http://www.w3.org/2000/svg" width="100" height="35" viewBox="0 0 482.37 107.88">
  <rect width="482.37" height="107.88" rx="14.97" style="fill:#e0b605" data-name="Layer 5" />
  <g data-name="Layer 3">
    <path d="M105.71 29.33c-7.13-13.9-24-10.17-31.6 6.3-6 13.1-6 16.34-7.37 22.1-.92 4-3.37 12.85-3.37 12.85s-.67 3-1.74.69-10.69-15.92-16.28-22.93-26.15-14.48-20 12.71c0 0 6.6 21.39 16 29.05S58.19 98.84 65 86.72c0 0 1-1.22 2.5 1.22 0 0 21.65 20.56 33.05-1.67s12.29-43.04 5.16-56.94ZM56.76 83.57c-4.63 7.9-7.67 5.73-13.31-.18-5-5.24-9.37-16.38-10.18-18.94-.1-.32-.15-.5-.15-.5-4.47-20 8.08-7.77 8.08-7.77s3 2.5 9.5 11.05 10.69 8.44 6.06 16.34Zm39-7.19c-4.72 14.08-12.48 13-14.88 13s-7.58-4.63-12.12-9.89c0 0 10.6-28.6 12.65-32.44s12-18 16.58 1.43a62.87 62.87 0 0 1-2.2 27.9Z" transform="translate(-6.18 -4.75)" style="fill:#006fe7;stroke:#000;stroke-miterlimit:10;stroke-width:.5px" /><text transform="translate(120.23 75)" style="font-size:72px;fill:#24272d;font-family:Montserrat-SemiBold,Montserrat;font-weight:600">Meta<tspan x="187.77" y="0" style="letter-spacing:-.054999457465277776em">T</tspan>
      <tspan x="227.16" y="0">ool</tspan>
    </text>
  </g>
</svg>